# xmcd CD database file
#
# Track frame offsets:
#	150
#	13066
#	35500
#	46780
#	68647
#	84640
#	100557
#	117022
#	131435
#	153311
#	173031
#	183055
#	200091
#
# Disc length: 2936 seconds
#
# Revision: 0
# Processed by: cddbd v1.5.2PL0 Copyright (c) Steve Scherf et al.
# Submitted via: CDex 1.51
#
DISCID=9a0b760d
DTITLE=Gaspo Harmonica e Oly Jr - Na Capa da Gaita
DYEAR=2004
DGENRE=Blues
TTITLE0=Pé na Estrada
TTITLE1=Tentando me Acabar
TTITLE2=Tosquera Blues
TTITLE3=Garota Colegial
TTITLE4=Que Ressaca
TTITLE5=Na Capa da Gaita
TTITLE6=Perdido e Cansado I
TTITLE7=OK Baby Come On Home
TTITLE8=Um Dia de Blues
TTITLE9=Onde Está Meu Dinheiro
TTITLE10=Gaspo Boogie
TTITLE11=Perdido e Cansado II
TTITLE12=I Made This Blues For You
EXTD=YEAR: 2004
EXTT0=
EXTT1=
EXTT2=
EXTT3=
EXTT4=
EXTT5=
EXTT6=
EXTT7=
EXTT8=
EXTT9=
EXTT10=
EXTT11=
EXTT12=
PLAYORDER=
